<svg width="54" height="55" viewBox="0 0 54 55" fill="none" xmlns="http://www.w3.org/2000/svg">
<path d="M24.75 38.9583H29.25V29.7917H38.25V25.2083H29.25V16.0417H24.75V25.2083H15.75V29.7917H24.75V38.9583ZM27 50.4167C23.8875 50.4167 20.9625 49.8151 18.225 48.612C15.4875 47.4088 13.1062 45.776 11.0812 43.7135C9.05625 41.651 7.45312 39.2257 6.27187 36.4375C5.09062 33.6493 4.5 30.6701 4.5 27.5C4.5 24.3299 5.09062 21.3507 6.27187 18.5625C7.45312 15.7743 9.05625 13.349 11.0812 11.2865C13.1062 9.22395 15.4875 7.59114 18.225 6.38802C20.9625 5.18489 23.8875 4.58333 27 4.58333C30.1125 4.58333 33.0375 5.18489 35.775 6.38802C38.5125 7.59114 40.8937 9.22395 42.9188 11.2865C44.9437 13.349 46.5469 15.7743 47.7281 18.5625C48.9094 21.3507 49.5 24.3299 49.5 27.5C49.5 30.6701 48.9094 33.6493 47.7281 36.4375C46.5469 39.2257 44.9437 41.651 42.9188 43.7135C40.8937 45.776 38.5125 47.4088 35.775 48.612C33.0375 49.8151 30.1125 50.4167 27 50.4167ZM27 45.8333C32.025 45.8333 36.2812 44.0573 39.7687 40.5052C43.2562 36.9531 45 32.618 45 27.5C45 22.3819 43.2562 18.0469 39.7687 14.4948C36.2812 10.9427 32.025 9.16666 27 9.16666C21.975 9.16666 17.7188 10.9427 14.2312 14.4948C10.7437 18.0469 9 22.3819 9 27.5C9 32.618 10.7437 36.9531 14.2312 40.5052C17.7188 44.0573 21.975 45.8333 27 45.8333Z" fill="#FEFEFE"/>
</svg>
