<svg width="17" height="17" viewBox="0 0 17 17" fill="none" xmlns="http://www.w3.org/2000/svg">
<path d="M7.92941 2.63395C7.77645 2.64222 7.62909 2.69422 7.50481 2.78377C7.38054 2.87333 7.2846 2.99668 7.22836 3.13916L3.21691 13.2996H2.93253C2.86186 13.2986 2.79169 13.3116 2.72611 13.338C2.66052 13.3643 2.60083 13.4035 2.5505 13.4531C2.50017 13.5027 2.46021 13.5618 2.43293 13.627C2.40565 13.6923 2.3916 13.7622 2.3916 13.8329C2.3916 13.9036 2.40565 13.9736 2.43293 14.0388C2.46021 14.104 2.50017 14.1631 2.5505 14.2127C2.60083 14.2624 2.66052 14.3015 2.72611 14.3278C2.79169 14.3542 2.86186 14.3672 2.93253 14.3662H5.06586C5.13654 14.3672 5.2067 14.3542 5.27229 14.3278C5.33787 14.3015 5.39756 14.2624 5.44789 14.2127C5.49822 14.1631 5.53819 14.104 5.56547 14.0388C5.59275 13.9736 5.60679 13.9036 5.60679 13.8329C5.60679 13.7622 5.59275 13.6923 5.56547 13.627C5.53819 13.5618 5.49822 13.5027 5.44789 13.4531C5.39756 13.4035 5.33787 13.3643 5.27229 13.338C5.2067 13.3116 5.13654 13.2986 5.06586 13.2996H4.9367L5.78045 11.161C5.80873 11.1651 5.8373 11.1668 5.86586 11.1662H10.5846L11.5471 13.2996H11.4659C11.3952 13.2986 11.325 13.3116 11.2594 13.338C11.1939 13.3643 11.1342 13.4035 11.0838 13.4531C11.0335 13.5027 10.9935 13.5618 10.9663 13.627C10.939 13.6923 10.9249 13.7622 10.9249 13.8329C10.9249 13.9036 10.939 13.9736 10.9663 14.0388C10.9935 14.104 11.0335 14.1631 11.0838 14.2127C11.1342 14.2624 11.1939 14.3015 11.2594 14.3278C11.325 14.3542 11.3952 14.3672 11.4659 14.3662H13.5992C13.6699 14.3672 13.74 14.3542 13.8056 14.3278C13.8712 14.3015 13.9309 14.2624 13.9812 14.2127C14.0316 14.1631 14.0715 14.104 14.0988 14.0388C14.1261 13.9736 14.1401 13.9036 14.1401 13.8329C14.1401 13.7622 14.1261 13.6923 14.0988 13.627C14.0715 13.5618 14.0316 13.5027 13.9812 13.4531C13.9309 13.4035 13.8712 13.3643 13.8056 13.338C13.74 13.3116 13.6699 13.2986 13.5992 13.2996H13.3034L8.70128 3.10374C8.63494 2.95677 8.52575 2.83328 8.38801 2.74945C8.25027 2.66562 8.09042 2.62536 7.92941 2.63395ZM8.02107 5.48707L10.1034 10.0996H6.20024L8.02107 5.48707Z" fill="#EBEBEB"/>
</svg>
