<svg width="17" height="17" viewBox="0 0 17 17" fill="none" xmlns="http://www.w3.org/2000/svg">
<g opacity="0.6" clip-path="url(#clip0_47_52)">
<path d="M13.5909 1.55866C13.4496 1.56087 13.315 1.61903 13.2165 1.72039C13.1181 1.82175 13.0639 1.95801 13.0659 2.09928V3.69928H11.4659C11.3952 3.69828 11.325 3.71134 11.2594 3.7377C11.1939 3.76405 11.1342 3.80317 11.0838 3.8528C11.0335 3.90242 10.9935 3.96155 10.9663 4.02676C10.939 4.09196 10.9249 4.16194 10.9249 4.23262C10.9249 4.3033 10.939 4.37327 10.9663 4.43848C10.9935 4.50368 11.0335 4.56281 11.0838 4.61244C11.1342 4.66206 11.1939 4.70119 11.2594 4.72754C11.325 4.75389 11.3952 4.76695 11.4659 4.76595H13.0659V6.36595C13.0649 6.43662 13.0779 6.50679 13.1043 6.57237C13.1306 6.63796 13.1698 6.69765 13.2194 6.74798C13.269 6.79831 13.3281 6.83827 13.3933 6.86555C13.4585 6.89283 13.5285 6.90688 13.5992 6.90688C13.6699 6.90688 13.7399 6.89283 13.8051 6.86555C13.8703 6.83827 13.9294 6.79831 13.979 6.74798C14.0286 6.69765 14.0678 6.63796 14.0941 6.57237C14.1205 6.50679 14.1335 6.43662 14.1325 6.36595V4.76595H15.7325C15.8032 4.76695 15.8734 4.75389 15.939 4.72754C16.0045 4.70119 16.0642 4.66206 16.1146 4.61244C16.1649 4.56281 16.2049 4.50368 16.2321 4.43848C16.2594 4.37327 16.2735 4.3033 16.2735 4.23262C16.2735 4.16194 16.2594 4.09196 16.2321 4.02676C16.2049 3.96155 16.1649 3.90242 16.1146 3.8528C16.0642 3.80317 16.0045 3.76405 15.939 3.7377C15.8734 3.71134 15.8032 3.69828 15.7325 3.69928H14.1325V2.09928C14.1335 2.02793 14.1202 1.9571 14.0933 1.891C14.0664 1.8249 14.0265 1.76487 13.976 1.71446C13.9255 1.66404 13.8654 1.62428 13.7992 1.59752C13.7331 1.57076 13.6622 1.55754 13.5909 1.55866ZM7.92941 2.63366C7.77645 2.64193 7.62909 2.69393 7.50481 2.78348C7.38054 2.87304 7.2846 2.99638 7.22836 3.13887L3.21691 13.2993H2.93253C2.86186 13.2983 2.79169 13.3113 2.72611 13.3377C2.66052 13.364 2.60083 13.4032 2.5505 13.4528C2.50017 13.5024 2.46021 13.5616 2.43293 13.6268C2.40565 13.692 2.3916 13.7619 2.3916 13.8326C2.3916 13.9033 2.40565 13.9733 2.43293 14.0385C2.46021 14.1037 2.50017 14.1628 2.5505 14.2124C2.60083 14.2621 2.66052 14.3012 2.72611 14.3275C2.79169 14.3539 2.86186 14.367 2.93253 14.366H5.06586C5.13654 14.367 5.2067 14.3539 5.27229 14.3275C5.33787 14.3012 5.39756 14.2621 5.44789 14.2124C5.49822 14.1628 5.53819 14.1037 5.56547 14.0385C5.59275 13.9733 5.60679 13.9033 5.60679 13.8326C5.60679 13.7619 5.59275 13.692 5.56547 13.6268C5.53819 13.5616 5.49822 13.5024 5.44789 13.4528C5.39756 13.4032 5.33787 13.364 5.27229 13.3377C5.2067 13.3113 5.13654 13.2983 5.06586 13.2993H4.9367L5.78045 11.1607C5.80873 11.1648 5.8373 11.1665 5.86586 11.166H10.5846L11.5471 13.2993H11.4659C11.3952 13.2983 11.325 13.3113 11.2594 13.3377C11.1939 13.364 11.1342 13.4032 11.0838 13.4528C11.0335 13.5024 10.9935 13.5616 10.9663 13.6268C10.939 13.692 10.9249 13.7619 10.9249 13.8326C10.9249 13.9033 10.939 13.9733 10.9663 14.0385C10.9935 14.1037 11.0335 14.1628 11.0838 14.2124C11.1342 14.2621 11.1939 14.3012 11.2594 14.3275C11.325 14.3539 11.3952 14.367 11.4659 14.366H13.5992C13.6699 14.367 13.74 14.3539 13.8056 14.3275C13.8712 14.3012 13.9309 14.2621 13.9812 14.2124C14.0316 14.1628 14.0715 14.1037 14.0988 14.0385C14.1261 13.9733 14.1401 13.9033 14.1401 13.8326C14.1401 13.7619 14.1261 13.692 14.0988 13.6268C14.0715 13.5616 14.0316 13.5024 13.9812 13.4528C13.9309 13.4032 13.8712 13.364 13.8056 13.3377C13.74 13.3113 13.6699 13.2983 13.5992 13.2993H13.3034L8.70128 3.10345C8.63494 2.95648 8.52575 2.83299 8.38801 2.74916C8.25027 2.66532 8.09042 2.62507 7.92941 2.63366ZM8.02107 5.48678L10.1034 10.0993H6.20024L8.02107 5.48678Z" fill="#EBEBEB"/>
</g>
<defs>
<clipPath id="clip0_47_52">
<rect width="16" height="16" fill="white" transform="translate(0.266602 0.5)"/>
</clipPath>
</defs>
</svg>
